HIERARCHY
ROOT Hips
{
  OFFSET -102.467 93.6631 130.069
  CHANNELS 6 Xposition Yposition Zposition Zrotation Xrotation Yrotation
  JOINT LeftUpLeg
  {
    OFFSET 8.64259 1.95398 -2.38835
    CHANNELS 3 Zrotation Xrotation Yrotation
    JOINT LeftLeg
    {
      OFFSET 43.7702 0 0
      CHANNELS 3 Zrotation Xrotation Yrotation
      JOINT LeftFoot
      {
        OFFSET 40.6238 0 0
        CHANNELS 3 Zrotation Xrotation Yrotation
        JOINT LeftToeBase
        {
          OFFSET 12.7242 0 0
          CHANNELS 3 Zrotation Xrotation Yrotation
          End Site
          {
            OFFSET 0 0 0
          }
        }
      }
    }
  }
  JOINT RightUpLeg
  {
    OFFSET -8.2249 1.95398 -2.59336
    CHANNELS 3 Zrotation Xrotation Yrotation
    JOINT RightLeg
    {
      OFFSET 43.5653 0 0
      CHANNELS 3 Zrotation Xrotation Yrotation
      JOINT RightFoot
      {
        OFFSET 40.6238 0 0
        CHANNELS 3 Zrotation Xrotation Yrotation
        JOINT RightToeBase
        {
          OFFSET 12.7242 0 0
          CHANNELS 3 Zrotation Xrotation Yrotation
          End Site
          {
            OFFSET 0 0 0
          }
        }
      }
    }
  }
  JOINT Spine
  {
    OFFSET 0.165834 0.87714 6.61349
    CHANNELS 3 Zrotation Xrotation Yrotation
    JOINT Spine1
    {
      OFFSET 7.38963 1.71661e-005 0
      CHANNELS 3 Zrotation Xrotation Yrotation
      JOINT Spine2
      {
        OFFSET 11.9445 1.14441e-005 0
        CHANNELS 3 Zrotation Xrotation Yrotation
        JOINT Spine3
        {
          OFFSET 14.7254 4.19617e-005 0
          CHANNELS 3 Zrotation Xrotation Yrotation
          JOINT Spine4
          {
            OFFSET 10.9679 0 0
            CHANNELS 3 Zrotation Xrotation Yrotation
            JOINT RightShoulder
            {
              OFFSET 2.46616 -1.6653 3.69651
              CHANNELS 3 Zrotation Xrotation Yrotation
              JOINT RightArm
              {
                OFFSET 13.0012 0 0
                CHANNELS 3 Zrotation Xrotation Yrotation
                JOINT RightForeArm
                {
                  OFFSET 28.7848 1.52588e-005 0
                  CHANNELS 3 Zrotation Xrotation Yrotation
                  JOINT RightHand
                  {
                    OFFSET 26.5688 1.52588e-005 0
                    CHANNELS 3 Zrotation Xrotation Yrotation
                    End Site
                    {
                      OFFSET 0 0 0
                    }
                  }
                }
              }
            }
            JOINT LeftShoulder
            {
              OFFSET 2.38034 -1.29275 -3.7523
              CHANNELS 3 Zrotation Xrotation Yrotation
              JOINT LeftArm
              {
                OFFSET 16.3182 6.10351e-005 0
                CHANNELS 3 Zrotation Xrotation Yrotation
                JOINT LeftForeArm
                {
                  OFFSET 27.0901 0 0
                  CHANNELS 3 Zrotation Xrotation Yrotation
                  JOINT LeftHand
                  {
                    OFFSET 24.5451 1.52588e-005 0
                    CHANNELS 3 Zrotation Xrotation Yrotation
                    End Site
                    {
                      OFFSET 0 0 0
                    }
                  }
                }
              }
            }
            JOINT Neck
            {
              OFFSET 5.0226 -0.0266342 0
              CHANNELS 3 Zrotation Xrotation Yrotation
              JOINT Head
              {
                OFFSET 6.69363 2.86102e-005 0
                CHANNELS 3 Zrotation Xrotation Yrotation
                End Site
                {
                  OFFSET 0 0 0
                }
              }
            }
          }
        }
      }
    }
  }
}
MOTION
Frames:	15
Frame Time:	0.0416667
-8.31132 98.4188 7.13966 138.522 -85.0177 138.894 -174.643 1.08223 91.5164 -15.3317 6.94408 2.97687 66.6665 3.07275 -1.46519 30.3115 -0.114087 0.798292 174.115 2.20663 86.6424 -16.2672 -5.9558 0.0979638 67.63 -2.06646 3.29572 28.1026 0.32099 1.02895 -0.298943 7.15697 -90.2098 12.5589 -0.693815 -0.338544 0.888148 -0.708041 -0.307689 -21.6477 -0.559989 -0.531405 -1.63505 -0.559996 -0.531423 99.872 -53.2495 -85.6087 28.3802 -8.76424 -6.87776 2.17988 3.11164 -11.7248 -19.8209 -0.791264 -0.576875 -84.4364 -53.2477 87.229 -28.0811 7.65869 -16.2454 0.544214 22.5839 -5.9901 -1.12465 -0.102089 -4.88911 10.0811 -1.94079 2.87956 -21.8253 -1.45034 -7.10295 
-8.27415 98.4079 7.11735 137.922 -85.3097 138.618 -174.581 1.18377 91.7707 -14.9514 6.72684 3.05915 66.901 3.17177 -1.71339 30.1448 -0.0908034 0.864095 174.318 2.26759 86.9738 -15.8319 -5.89082 0.0923974 67.2361 -1.92389 3.30315 28.4483 0.299986 1.39006 -0.280249 7.13457 -90.2501 12.6034 -0.675863 -0.420666 0.932599 -0.693722 -0.390527 -21.6029 -0.518197 -0.604346 -1.59028 -0.518194 -0.604349 99.8254 -53.1234 -85.6839 28.5322 -8.81633 -6.79867 2.34118 3.6202 -11.9585 -20.0137 -0.80549 -0.53892 -84.5757 -53.4102 87.0438 -27.7072 7.83449 -16.2369 0.291636 22.1572 -5.91245 -1.3634 -0.102064 -5.04645 9.867 -1.8558 2.81024 -21.0984 -1.40785 -6.99653 
-8.25513 98.411 7.10025 137.856 -85.411 138.575 -174.598 1.34328 91.7385 -15.1176 6.42898 3.05304 66.9546 3.13887 -1.74558 30.1053 -0.0896025 0.824142 174.342 2.36402 86.9935 -15.8316 -5.80298 0.0889402 67.2637 -1.93324 3.36215 28.3447 0.333272 1.45252 -0.273974 7.13465 -90.2619 12.6032 -0.669071 -0.445039 0.932345 -0.688008 -0.415161 -21.6031 -0.504393 -0.625543 -1.59042 -0.504396 -0.625552 99.832 -53.0337 -85.6779 28.5941 -8.78239 -6.83545 2.34157 3.70186 -12.0248 -20.0115 -0.845108 -0.308737 -84.513 -53.6032 87.1567 -27.5858 7.90781 -16.2708 0.235525 21.8883 -5.93547 -1.12864 -0.102063 -5.05755 10.0161 -1.73138 3.27423 -21.1616 -1.30373 -7.56799 
-8.25834 98.4149 7.09189 137.726 -85.3858 138.437 -174.586 1.40432 91.746 -15.2372 6.37407 3.04241 66.918 3.05835 -1.77727 30.1094 -0.124048 0.382957 174.331 2.36716 86.9899 -15.8713 -5.63444 0.0871432 67.3903 -1.94594 3.4804 27.9995 0.396579 1.3671 -0.27581 7.15034 -90.2567 12.5718 -0.670192 -0.434778 0.900996 -0.688678 -0.404869 -21.6345 -0.508539 -0.61622 -1.62181 -0.508547 -0.61623 99.8555 -53.0334 -85.6424 28.6018 -8.88803 -6.93444 2.46808 3.90805 -11.903 -20.4312 -0.795127 -0.695494 -84.4979 -53.6387 87.1826 -27.556 7.9377 -16.2623 0.250749 21.511 -6.01353 -0.748121 -0.102075 -4.97765 10.3093 -1.71829 2.90091 -21.2625 -1.29591 -6.97974 
-8.23739 98.4011 7.07964 137.066 -85.4202 137.784 -174.621 1.37003 91.725 -15.01 6.43505 3.06115 66.8788 3.15278 -1.59738 30.1353 -0.136382 0.262749 174.31 2.45493 86.9676 -15.9085 -5.4807 0.112042 67.536 -1.91981 3.68312 27.7035 0.483162 1.50165 -0.279101 7.15189 -90.2538 12.5688 -0.675363 -0.428404 0.897942 -0.693561 -0.398269 -21.6375 -0.515389 -0.607501 -1.62488 -0.515396 -0.607514 99.8689 -53.1242 -85.6186 28.488 -9.03455 -6.92852 2.60848 4.2827 -12.0309 -20.6217 -0.842582 -0.470314 -84.3654 -53.633 87.3746 -27.6708 7.8115 -16.2948 0.431824 22.1164 -6.06549 -0.876628 -0.102055 -5.10396 10.2286 -1.64102 2.95457 -21.2713 -1.22362 -7.02052 
-8.22815 98.405 7.05726 136.203 -85.4321 136.887 -174.614 1.47693 91.7023 -15.0963 6.58997 3.01412 66.9252 3.20242 -1.47269 29.979 -0.132632 0.0767081 174.331 2.54409 86.9592 -15.9605 -5.27355 0.0798218 67.5105 -1.92495 3.596 27.8558 0.533115 2.04849 -0.279706 7.16954 -90.2514 12.5335 -0.675375 -0.423946 0.862642 -0.693385 -0.393817 -21.6729 -0.51675 -0.607446 -1.66022 -0.516748 -0.607456 99.7799 -53.1977 -85.7491 28.448 -8.92551 -6.89289 2.43065 3.7646 -12.1957 -20.5181 -0.899457 -0.121442 -84.3682 -53.4284 87.3481 -27.9612 7.7599 -16.3107 0.565004 22.2771 -6.11232 -0.704731 -0.10207 -5.01203 10.4802 -1.65271 2.88932 -21.4243 -1.25562 -6.76606 
-8.2256 98.3987 7.02801 134.985 -85.3861 135.597 -174.684 1.5472 91.6164 -15.1736 6.96215 3.00838 66.8125 3.11654 -1.52903 30.2612 -0.0870425 1.07816 174.314 2.63125 86.8914 -16.0404 -5.07158 0.0654667 67.6037 -1.8123 3.84759 27.6529 0.521976 1.68421 -0.298545 7.17802 -90.2477 12.5165 -0.711019 -0.412483 0.845693 -0.728481 -0.380799 -21.69 -0.55418 -0.607107 -1.67734 -0.554179 -0.607112 99.5735 -53.0889 -86.0634 28.5477 -8.87639 -6.80684 2.38404 3.646 -12.1099 -20.4373 -0.881976 -0.198538 -84.3384 -53.3515 87.3836 -28.0269 7.93259 -16.2251 0.443654 21.9867 -6.11964 -0.11661 -0.10208 -4.94824 10.1425 -1.76987 2.6572 -21.3022 -1.37447 -6.38542 
-8.20622 98.4073 7.01971 134.619 -85.36 135.276 -174.651 1.55226 91.6603 -15.1095 6.8606 3.00879 66.7738 3.14708 -1.42221 30.228 -0.1217 0.583315 174.37 2.55452 86.96 -15.8994 -4.89318 0.0147515 67.6133 -1.81873 3.89969 27.4593 0.58864 1.84567 -0.290345 7.20107 -90.2626 12.4703 -0.701789 -0.443803 0.799486 -0.720632 -0.412492 -21.736 -0.535958 -0.6342 -1.7234 -0.53596 -0.634206 99.6651 -52.7671 -85.9406 28.8492 -8.88133 -6.88933 2.40599 3.78809 -12.0143 -20.2351 -0.864129 -0.252002 -84.3652 -53.5002 87.3603 -27.8591 7.97831 -16.3213 0.399374 22.1643 -6.08044 -0.116534 -0.10206 -5.07409 9.9856 -1.80108 2.63315 -20.9496 -1.43063 -6.29373 
-8.20222 98.3848 6.99625 134.115 -85.4246 134.709 -174.684 1.68944 91.5928 -15.2054 6.56836 2.98162 66.8741 3.09639 -1.6077 30.119 -0.128321 0.34316 174.307 2.77344 86.8611 -16.1322 -5.00657 0.0756836 67.7021 -1.84313 3.82377 27.5943 0.546269 1.75967 -0.28062 7.21166 -90.2621 12.4491 -0.682169 -0.445087 0.778319 -0.701102 -0.414641 -21.7572 -0.516865 -0.629533 -1.7445 -0.516874 -0.629537 99.6689 -52.7436 -85.9359 28.8143 -8.83025 -6.9138 2.26855 3.46303 -11.8626 -19.8778 -0.858313 -0.195876 -84.536 -53.6661 87.1304 -27.659 7.99497 -16.2632 0.357538 22.0554 -6.0837 0.0500092 -0.10209 -4.88193 9.54313 -1.67994 3.27463 -20.9231 -1.30557 -7.24241 
-8.22262 98.4077 6.9623 135.166 -85.4389 135.806 -174.639 1.62675 91.6748 -15.1671 6.91406 2.97555 66.9099 3.11403 -1.73783 29.8388 -0.0288877 1.24825 174.31 2.65266 86.9059 -15.9128 -5.19837 0.0997734 67.504 -1.84576 3.68834 27.5972 0.550351 1.79103 -0.276847 7.23422 -90.2743 12.4039 -0.680427 -0.470156 0.733059 -0.700464 -0.439764 -21.8023 -0.50768 -0.652917 -1.78965 -0.507673 -0.652917 99.747 -52.6917 -85.8205 28.8549 -8.65632 -7.16438 2.25842 3.49602 -11.5838 -19.8998 -0.851401 -0.241284 -84.4 -53.2707 87.2843 -28.2193 7.88454 -16.2876 0.631509 23.0266 -6.18551 -0.368178 -0.10308 -5.08224 7.87977 -1.6995 2.9852 -20.2495 -1.43709 -6.02942 
-8.25697 98.4252 6.86168 133.578 -85.2921 134.084 -174.835 1.68003 91.489 -15.1255 6.66263 3.07182 66.629 2.98336 -1.84945 30.042 -0.0686512 0.997476 174.293 2.71511 86.8195 -15.9578 -5.22778 0.0703243 67.4028 -1.81662 3.63279 27.857 0.477303 1.68565 -0.301965 7.25288 -90.2669 12.3666 -0.726735 -0.450249 0.695804 -0.745841 -0.417831 -21.8398 -0.557821 -0.64784 -1.82714 -0.557817 -0.647844 100.014 -52.6283 -85.4205 28.7456 -8.79156 -7.50712 2.3486 3.60526 -11.548 -20.1801 -0.827153 -0.453967 -84.3005 -52.9956 87.3997 -28.3211 8.46017 -16.5026 0.854386 25.6228 -6.80537 -0.386678 -0.0958343 -4.59517 4.6797 -1.64562 2.76518 -19.7115 -1.42829 -5.04417 
-8.29541 98.4503 6.71653 128.488 -85.2721 129.135 -174.908 2.13371 91.605 -15.1326 6.77335 3.13818 66.4451 2.88891 -1.94523 30.3212 -0.116176 0.784781 174.397 2.93584 87.0316 -15.6891 -5.25285 0.124228 67.052 -1.83745 3.29515 28.0544 0.388837 1.39581 -0.312095 7.28147 -90.2839 12.3093 -0.754884 -0.48172 0.638485 -0.77535 -0.448037 -21.8971 -0.575207 -0.686323 -1.88444 -0.575213 -0.686331 100.38 -52.6252 -84.8667 28.5763 -9.07892 -8.18214 2.42228 3.69265 -11.697 -20.3238 -0.820319 -0.527111 -84.4192 -52.4773 87.1677 -28.789 8.559 -17.1257 1.57533 28.771 -7.3846 -0.950093 -0.0899376 -4.33915 1.24307 -1.56922 2.05768 -20.9839 -1.39462 -3.20664 
-8.35052 98.4601 6.35653 130.316 -85.0275 130.929 -175.133 2.11197 91.4909 -15.2223 7.03889 3.33231 66.2977 2.77537 -1.94235 30.1549 -0.0323525 1.6334 174.4 2.93155 87.0329 -15.7804 -5.72132 0.133243 66.7539 -1.95087 2.742 28.2353 0.330513 1.28111 -0.341634 7.40055 -90.2595 12.0712 -0.801684 -0.429689 0.400498 -0.819816 -0.393993 -22.1355 -0.635486 -0.650755 -2.12281 -0.635487 -0.650768 100.123 -53.018 -85.241 27.9622 -9.68917 -8.5908 2.68246 4.3233 -12.0772 -20.4724 -0.691155 -1.299 -84.2185 -52.4407 87.4595 -28.483 8.51133 -17.2707 1.79943 26.3417 -8.19109 -1.00155 -0.0919475 -4.48775 -3.27669 -1.2126 1.30439 -21.3033 -1.07409 -1.86136 
-8.38346 98.475 6.01886 129.869 -85.2528 130.561 -174.959 2.5478 91.6422 -15.232 6.82709 3.1614 66.0494 2.54854 -2.06445 30.1461 -0.0686014 1.15382 174.499 3.19433 87.1378 -15.4585 -5.84784 0.148091 66.4507 -1.72913 2.77135 28.1326 0.34122 1.20242 -0.326322 7.54397 -90.2403 11.7846 -0.761883 -0.398676 0.113843 -0.778687 -0.364767 -22.4221 -0.60684 -0.609224 -2.40941 -0.606845 -0.609238 100.17 -52.9427 -85.1725 27.7617 -10.4624 -9.52472 2.52125 3.27808 -12.3985 -19.9833 -0.727098 -0.993992 -83.8826 -52.1335 87.9224 -28.2562 8.66059 -17.8127 1.68358 23.0414 -8.66284 -0.0504739 -0.106418 -5.19511 -7.56201 -1.0826 0.945977 -22.1185 -1.06724 -0.536134 
-8.40601 98.4906 5.45915 132.401 -85.473 132.998 -175.052 2.78376 91.4857 -15.0588 7.13941 3.09807 65.629 2.58119 -1.50621 30.1396 -0.0469552 1.42452 174.41 3.78338 86.943 -15.7573 -6.30622 0.274813 66.126 -1.39086 2.89328 28.1894 0.306745 1.06256 -0.295962 7.78571 -90.2415 11.3013 -0.701362 -0.409942 -0.369549 -0.718729 -0.378676 -22.9052 -0.545737 -0.601782 -2.89254 -0.545735 -0.601777 100.052 -52.504 -85.3673 27.7688 -10.7033 -10.6039 2.12812 2.15585 -12.8646 -19.0538 -0.648643 -1.26213 -84.0055 -51.9452 87.7205 -27.9662 8.77529 -18.389 2.02196 21.5604 -9.93299 -0.257941 -0.103704 -5.18777 -10.8279 -0.799371 2.06565 -23.5733 -0.791186 -0.656799 
